<?xml version="1.0" standalone="no"?>
<!DOCTYPE svg PUBLIC "-//W3C//DTD SVG 20010904//EN"
 "http://www.w3.org/TR/2001/REC-SVG-20010904/DTD/svg10.dtd">
<svg version="1.0" xmlns="http://www.w3.org/2000/svg"
 width="512.000000pt" height="512.000000pt" viewBox="0 0 512.000000 512.000000"
 preserveAspectRatio="xMidYMid meet">

<g transform="translate(0.000000,512.000000) scale(0.100000,-0.100000)"
fill="#000000" stroke="none">
<path d="M840 5098 c-24 -13 -58 -40 -74 -61 -29 -37 -31 -44 -34 -142 l-4
-103 -66 -4 c-37 -2 -83 -12 -103 -22 -110 -53 -164 -179 -125 -289 35 -96
107 -147 221 -156 l70 -6 3 -161 2 -162 -73 -4 c-61 -3 -83 -9 -123 -33 -126
-78 -150 -254 -48 -359 50 -52 89 -69 172 -74 l72 -5 0 -157 0 -158 -67 -7
c-115 -12 -179 -52 -219 -140 -29 -62 -30 -125 -3 -185 42 -92 110 -138 220
-147 l69 -6 0 -157 0 -157 -69 -6 c-110 -9 -178 -55 -220 -147 -51 -113 7
-257 124 -306 17 -6 60 -15 98 -19 l67 -7 0 -158 0 -157 -72 -5 c-83 -5 -122
-22 -172 -74 -102 -105 -78 -281 48 -359 40 -24 62 -30 123 -33 l73 -4 -2
-162 -3 -161 -70 -6 c-114 -9 -186 -60 -221 -156 -39 -110 15 -236 125 -289
20 -10 66 -20 103 -22 l66 -4 4 -103 c3 -98 5 -105 34 -142 16 -21 50 -48 74
-60 l44 -23 1837 0 1836 0 44 23 c24 13 58 43 74 66 l30 43 0 2428 0 2428 -30
43 c-16 23 -50 53 -74 66 l-44 23 -1836 0 -1837 0 -44 -22z m3705 -2538 l0
-2395 -1819 -3 c-1336 -1 -1822 1 -1832 9 -19 16 -21 4758 -2 4777 9 9 425 11
1833 10 l1820 -3 0 -2395z m-3817 1993 l3 -83 -48 0 c-80 0 -123 47 -101 111
13 37 57 60 108 56 l35 -2 3 -82z m2 -799 l0 -86 -56 4 c-68 6 -95 29 -97 83
-1 54 36 85 104 85 l49 0 0 -86z m0 -794 l0 -80 -51 0 c-62 0 -84 11 -98 50
-12 35 -7 56 22 88 16 17 31 22 74 22 l53 0 0 -80z m0 -800 l0 -80 -53 0 c-43
0 -58 5 -74 23 -28 31 -34 53 -22 85 15 40 37 52 96 52 l53 0 0 -80z m0 -795
l0 -85 -49 0 c-67 0 -105 31 -104 84 2 60 33 84 111 85 l42 1 0 -85z m-2 -797
c-3 -80 -4 -83 -28 -86 -13 -2 -42 1 -63 8 -29 9 -42 19 -53 45 -27 65 16 115
99 115 l48 0 -3 -82z"/>
<path d="M2586 4366 c-52 -20 -94 -62 -107 -108 -7 -29 -4 -159 5 -197 1 -2
-37 -14 -84 -28 -408 -117 -716 -455 -805 -881 -8 -40 -15 -91 -15 -113 l0
-39 -54 0 c-69 0 -116 -30 -134 -85 -19 -54 -11 -223 10 -254 42 -60 -53 -56
1294 -59 972 -2 1240 0 1270 10 24 8 47 26 61 47 20 30 23 46 23 138 0 157
-33 203 -143 203 l-46 0 -6 58 c-53 462 -381 851 -825 976 l-75 22 0 109 c0
99 -2 113 -23 143 -38 53 -73 65 -197 69 -78 2 -121 -1 -149 -11z m218 -213
c-4 -38 -8 -70 -10 -72 -2 -2 -37 -4 -78 -5 l-74 -1 -6 35 c-3 19 -6 52 -6 73
l0 37 90 0 91 0 -7 -67z m176 -266 c47 -14 112 -38 145 -52 200 -89 402 -291
492 -493 43 -98 83 -250 83 -319 l0 -23 -754 0 c-747 0 -754 0 -780 -21 -30
-23 -35 -72 -12 -105 14 -18 38 -19 878 -24 l863 -5 3 -42 3 -43 -1180 0
-1181 0 0 45 0 45 175 0 c162 0 177 2 195 20 30 30 27 83 -6 109 -22 17 -41
21 -100 21 l-74 0 6 48 c48 389 323 720 691 832 113 34 158 39 318 36 125 -3
164 -8 235 -29z"/>
<path d="M1410 2035 c-30 -32 -31 -79 -1 -108 l22 -22 1257 -3 c691 -1 1272 0
1290 3 68 12 94 83 47 130 l-24 25 -1284 0 -1284 0 -23 -25z"/>
<path d="M1502 1723 l-22 -18 2 -309 3 -309 27 -9 c19 -7 36 -5 55 4 l28 13 5
195 5 195 50 -95 c41 -78 54 -96 76 -98 31 -4 43 10 102 113 l46 80 3 -195 3
-194 26 -15 c22 -12 31 -12 58 -2 l31 13 0 309 0 309 -25 16 c-30 20 -75 12
-102 -19 -11 -12 -37 -53 -58 -92 -21 -38 -47 -85 -58 -103 l-20 -34 -59 109
c-32 59 -67 116 -76 125 -27 28 -74 33 -100 11z"/>
<path d="M2220 1720 c-19 -19 -20 -33 -20 -315 0 -282 1 -296 20 -315 18 -18
33 -20 193 -20 156 0 176 2 190 18 19 21 21 45 7 73 -10 17 -22 19 -145 19
l-135 0 0 90 0 90 73 0 c77 0 97 9 97 45 0 36 -20 45 -97 45 l-73 0 0 90 0 90
135 0 c123 0 135 2 145 19 15 29 12 56 -8 74 -16 14 -45 17 -190 17 -159 0
-174 -2 -192 -20z"/>
<path d="M2810 1727 l-25 -13 -3 -305 c-2 -271 0 -308 14 -320 20 -16 80 -17
96 -1 9 9 15 67 18 185 l5 172 79 -150 c43 -82 89 -164 102 -181 27 -36 61
-48 98 -34 l26 10 -2 317 -3 317 -32 9 c-25 8 -38 6 -58 -7 l-25 -16 0 -178
-1 -177 -89 170 c-109 209 -135 235 -200 202z"/>
<path d="M3453 1730 c-12 -5 -25 -20 -29 -34 -3 -14 -4 -128 -2 -253 4 -252 9
-277 67 -326 42 -35 101 -50 176 -45 78 5 130 31 163 81 l27 40 3 262 3 262
-30 13 c-25 10 -37 10 -61 0 l-30 -12 0 -222 c0 -228 -6 -278 -37 -302 -31
-23 -100 -18 -128 11 l-25 24 0 234 c0 171 -3 238 -12 250 -16 20 -57 29 -85
17z"/>
<path d="M1412 880 c-32 -30 -33 -82 -1 -115 19 -20 33 -20 913 -20 l894 0 26
24 c34 32 34 74 1 106 l-24 25 -894 0 c-885 0 -893 0 -915 -20z"/>
<path d="M3492 877 c-40 -43 -25 -107 29 -126 41 -14 438 -15 475 -1 57 22 72
83 29 125 l-24 25 -244 0 c-242 0 -244 0 -265 -23z"/>
</g>
</svg>
